# xmcd CD database file
#
# Track frame offsets:
#	150
#	12162
#	23837
#	36147
#	47357
#	58455
#	69947
#	81627
#	93397
#	107427
#	120125
#	131777
#	144652
#	157670
#	169070
#	181940
#	194407
#	207640
#	219462
#	231942
#	245070
#	258202
#	271635
#
# Disc length: 3804 seconds
#
# Revision: 0
# Processed by: cddbd v1.5PL3 Copyright (c) Steve Scherf et al.
# Submitted via: CDex 1.51
#
DISCID=3e0eda17
DTITLE=Blind Boy Fuller - Complete Works in Chronological Order - Volume 5
DYEAR=1992
DGENRE=Blues
TTITLE0=Stop Jivin' Me Mama
TTITLE1=Long Time Trucker
TTITLE2=Big House Bound
TTITLE3=Flyin' Airplane Blues
TTITLE4=Get Your Yas Yas Out
TTITLE5=Jitterbug Rag
TTITLE6=Screaming and Crying Blues
TTITLE7=Blacksnakin' Jiver
TTITLE8=I Don't Care How Long
TTITLE9=You've Got Something There
TTITLE10=Baby Quit Your Low Down Ways (take 1)
TTITLE11=Baby Quit Your Low Down Ways (take 2)
TTITLE12=It Doesn't Matter Baby
TTITLE13=Black Bottom Blues
TTITLE14=I Crave My Pig Meat
TTITLE15=Big Leg Woman Gets My Pay
TTITLE16=I'm a Stranger Here
TTITLE17=Red's Got the Piccolo Blues
TTITLE18=I Want Some of Your Pie
TTITLE19=Jivin' Big Bill Blues
TTITLE20=Woman You Better Wake Up
TTITLE21=Step It Up and Go
TTITLE22=Worn Out Engine Blues
EXTD=YEAR: 1992
EXTT0=
EXTT1=
EXTT2=
EXTT3=
EXTT4=
EXTT5=
EXTT6=
EXTT7=
EXTT8=
EXTT9=
EXTT10=
EXTT11=
EXTT12=
EXTT13=
EXTT14=
EXTT15=
EXTT16=
EXTT17=
EXTT18=
EXTT19=
EXTT20=
EXTT21=
EXTT22=
PLAYORDER=
